<?xml version="1.0" standalone="no"?>
<!DOCTYPE svg PUBLIC "-//W3C//DTD SVG 20010904//EN"
 "http://www.w3.org/TR/2001/REC-SVG-20010904/DTD/svg10.dtd">
<svg version="1.0" xmlns="http://www.w3.org/2000/svg"
 width="1002.000000pt" height="1002.000000pt" viewBox="0 0 1002.000000 1002.000000"
 preserveAspectRatio="xMidYMid meet">
<metadata>
Created by potrace 1.14, written by Peter Selinger 2001-2017
</metadata>
<g transform="translate(0.000000,1002.000000) scale(0.100000,-0.100000)"
fill="#000000" stroke="none">
<path d="M1735 9680 c-21 -17 -42 -34 -45 -38 -3 -4 -13 -11 -22 -17 -10 -5
-90 -62 -177 -125 l-160 -115 -1 -138 c0 -141 1 -146 42 -172 41 -27 100 -69
183 -133 6 -4 51 -36 100 -72 50 -35 92 -67 95 -71 3 -3 23 -18 46 -32 22 -14
47 -31 55 -39 8 -7 33 -26 57 -42 23 -16 42 -33 42 -38 0 -5 4 -7 8 -4 5 3 20
-6 35 -20 14 -13 29 -24 32 -24 7 0 129 -93 133 -102 2 -5 8 -8 13 -8 5 0 28
-15 52 -32 24 -18 54 -41 68 -50 13 -10 49 -36 79 -58 83 -62 88 -66 184 -135
50 -36 83 -65 75 -66 -8 0 -21 -2 -29 -4 -26 -5 -135 -28 -145 -31 -5 -2 -19
-5 -30 -7 -11 -3 -47 -12 -80 -22 -33 -9 -74 -20 -90 -24 -17 -4 -40 -13 -53
-20 -12 -6 -22 -10 -22 -7 0 2 -38 -11 -84 -29 -47 -18 -87 -31 -90 -27 -3 3
-6 1 -6 -5 0 -5 -6 -10 -14 -10 -43 0 -472 -230 -571 -305 -13 -10 -28 -18
-34 -18 -6 0 -11 -4 -11 -9 0 -5 -8 -12 -18 -15 -10 -4 -27 -14 -38 -24 -10
-9 -50 -41 -88 -70 -164 -125 -394 -350 -507 -497 -13 -16 -34 -41 -46 -55
-13 -14 -23 -28 -23 -32 0 -4 -8 -15 -19 -25 -24 -23 -176 -258 -226 -348 -45
-80 -123 -238 -122 -245 1 -3 -6 -18 -16 -35 -24 -43 -85 -204 -112 -295 -1
-3 -7 -17 -12 -31 -6 -14 -13 -40 -16 -57 -3 -17 -8 -35 -11 -40 -3 -4 -7 -19
-10 -33 -3 -13 -12 -51 -21 -84 -8 -33 -17 -76 -20 -95 -3 -19 -7 -42 -10 -50
-2 -8 -7 -31 -9 -50 -3 -19 -8 -48 -10 -65 -24 -150 -31 -253 -31 -475 0 -185
4 -271 20 -400 6 -48 17 -125 22 -145 2 -11 6 -31 8 -45 4 -24 15 -85 19 -105
1 -5 6 -21 11 -35 4 -14 9 -34 10 -45 1 -11 5 -27 8 -35 3 -8 15 -49 27 -90
12 -41 23 -79 24 -85 3 -11 12 -35 23 -62 4 -10 7 -23 8 -29 0 -6 5 -22 12
-35 15 -32 68 -162 68 -169 1 -11 147 -294 165 -320 11 -16 20 -31 20 -35 0
-9 138 -215 161 -241 11 -11 19 -24 19 -28 0 -7 12 -22 45 -59 11 -12 28 -32
36 -44 50 -72 284 -315 388 -403 30 -25 59 -49 65 -55 6 -5 27 -22 48 -37 20
-15 42 -33 50 -40 7 -7 36 -29 63 -48 28 -19 51 -38 53 -42 2 -4 8 -8 14 -8 6
0 26 -11 44 -25 18 -14 36 -25 39 -25 3 0 21 -11 39 -25 18 -14 36 -25 40 -25
3 0 25 -12 48 -26 47 -30 325 -169 358 -179 3 -1 19 -7 35 -14 132 -55 396
-137 500 -155 17 -3 41 -8 55 -11 14 -3 50 -10 80 -16 52 -9 82 -14 155 -24
54 -8 158 -16 248 -20 49 -2 91 -6 94 -8 3 -3 15 -2 28 3 14 5 26 5 34 -3 8
-8 11 -8 11 2 0 10 3 11 13 2 8 -6 16 -9 19 -6 3 3 56 7 119 10 63 3 130 7
149 10 19 2 58 7 85 10 50 5 112 14 150 21 11 2 31 6 45 9 14 2 48 9 75 16 28
6 59 12 70 13 11 2 27 6 35 10 8 3 24 7 35 9 11 1 25 6 32 10 16 10 29 -6 103
-128 54 -89 204 -298 244 -341 6 -6 36 -40 66 -75 83 -95 320 -328 320 -314 0
2 10 -6 23 -18 48 -45 99 -87 108 -87 5 0 9 -4 9 -8 0 -5 12 -15 28 -23 15 -8
33 -20 41 -27 12 -12 43 -33 109 -77 9 -5 24 -17 34 -25 10 -8 22 -15 26 -15
4 -1 25 -12 47 -26 22 -14 56 -34 75 -45 19 -10 37 -21 40 -24 6 -6 152 -78
220 -108 49 -22 122 -54 130 -57 11 -4 47 -17 80 -30 29 -11 101 -36 120 -40
3 -1 12 -4 20 -8 58 -23 281 -77 292 -71 4 3 8 1 8 -4 0 -5 6 -9 13 -9 27 -2
132 -20 132 -23 0 -1 16 -3 35 -4 19 -2 56 -7 81 -10 25 -4 68 -10 95 -13 69
-7 574 -11 574 -4 0 3 12 7 28 7 26 1 104 10 167 18 199 26 527 113 695 183
160 67 164 69 415 197 22 11 42 23 45 26 3 3 41 28 85 55 44 27 91 57 105 68
14 10 59 43 100 73 41 30 77 58 80 63 3 4 12 12 22 17 48 27 291 261 393 379
33 39 62 72 65 75 47 47 245 337 307 450 77 139 98 183 173 355 26 60 70 179
74 201 2 10 11 37 19 59 16 41 53 171 61 215 2 14 9 46 15 73 6 26 14 64 17
85 3 20 8 40 9 43 2 3 7 31 10 63 4 31 8 65 10 76 26 134 27 650 1 790 -2 14
-7 48 -11 75 -6 43 -13 95 -19 130 -1 6 -4 15 -7 20 -4 6 -5 18 -4 28 2 9 -1
17 -6 17 -4 0 -6 7 -3 15 4 8 1 21 -5 29 -6 7 -9 15 -6 18 3 2 -11 58 -30 124
-20 65 -38 130 -41 143 -3 13 -10 34 -16 45 -6 12 -11 22 -10 23 2 4 -33 99
-61 163 -6 14 -11 27 -12 30 -17 49 -127 274 -137 278 -5 2 -8 9 -8 15 0 7
-16 36 -35 65 -20 28 -33 52 -30 52 2 0 -3 9 -13 20 -9 12 -15 23 -14 27 2 3
0 9 -5 12 -11 7 -78 105 -75 109 1 1 -6 10 -15 20 -10 11 -27 32 -38 47 -26
37 -150 190 -189 234 -62 69 -226 230 -283 277 -32 27 -65 56 -73 64 -8 8 -22
20 -31 25 -9 6 -45 32 -80 58 -35 27 -73 55 -84 63 -11 7 -39 27 -62 44 -24
16 -45 30 -49 30 -3 0 -24 13 -47 29 -67 45 -252 144 -380 200 -84 38 -247
100 -247 94 0 -3 -6 -1 -12 4 -7 6 -26 14 -43 18 -36 10 -25 7 -110 32 -55 17
-145 40 -185 48 -3 1 -25 5 -50 10 -53 10 -59 12 -62 15 -2 1 -19 3 -38 5 -48
5 -100 13 -130 18 -146 29 -617 29 -824 0 -26 -3 -41 -1 -47 8 -12 18 -4 -35
8 -53 4 -7 8 -15 9 -18 0 -3 20 -45 43 -95 23 -49 46 -99 51 -110 29 -65 110
-282 115 -311 2 -10 4 -19 5 -19 1 0 3 -8 6 -17 6 -27 10 -42 17 -58 10 -27
24 -83 26 -107 1 -9 46 -12 169 -12 92 0 192 -2 222 -6 113 -11 136 -14 160
-19 13 -3 40 -8 60 -11 20 -3 47 -8 60 -11 14 -3 43 -10 65 -14 50 -11 160
-44 200 -60 17 -6 31 -11 33 -11 1 1 18 -6 38 -14 20 -8 41 -15 46 -15 13 0
296 -140 358 -177 24 -14 51 -32 58 -40 7 -7 17 -13 21 -13 4 0 21 -11 37 -25
16 -14 32 -25 36 -25 7 0 30 -17 62 -45 6 -6 31 -26 56 -45 25 -19 51 -43 58
-52 7 -10 17 -18 22 -18 7 0 49 -41 205 -204 17 -17 51 -58 75 -91 25 -33 48
-62 51 -65 3 -3 21 -27 39 -55 19 -27 37 -51 42 -53 4 -2 8 -8 8 -14 0 -5 14
-29 30 -53 17 -24 30 -47 30 -52 0 -5 11 -25 25 -46 14 -20 23 -37 21 -37 -3
0 8 -23 24 -50 17 -28 30 -57 30 -63 0 -7 4 -17 8 -22 8 -8 75 -170 78 -185 0
-3 7 -25 14 -50 7 -25 14 -48 16 -52 1 -5 2 -9 4 -10 2 -4 3 -9 35 -141 14
-59 23 -112 20 -117 -3 -5 -1 -11 4 -14 4 -3 9 -16 9 -28 0 -13 4 -50 9 -83 5
-33 9 -75 8 -92 0 -18 2 -33 5 -33 3 0 5 -72 5 -160 0 -88 -2 -160 -5 -160 -3
0 -5 -19 -6 -43 -1 -52 -12 -149 -24 -202 -5 -22 -11 -56 -14 -75 -3 -19 -13
-62 -21 -95 -8 -33 -17 -67 -19 -75 -16 -64 -105 -301 -129 -344 -6 -12 -12
-23 -13 -26 -8 -28 -30 -70 -36 -70 -4 0 -8 -6 -8 -12 0 -31 -193 -325 -265
-405 -5 -6 -32 -37 -60 -69 -150 -173 -373 -356 -580 -476 -93 -54 -308 -158
-328 -158 -7 0 -17 -4 -23 -10 -5 -5 -18 -11 -29 -13 -11 -2 -28 -7 -37 -10
-10 -4 -26 -10 -35 -14 -42 -15 -257 -71 -296 -77 -17 -2 -32 -5 -32 -6 0 -2
-88 -13 -215 -26 -125 -13 -433 -6 -510 12 -14 3 -41 7 -60 9 -32 3 -56 7
-115 19 -96 20 -286 76 -362 108 -16 6 -33 12 -40 14 -25 5 -268 127 -320 160
-29 19 -56 34 -58 34 -6 0 -108 70 -115 79 -3 4 -18 15 -35 25 -16 11 -37 25
-45 32 -8 8 -37 32 -65 55 -132 109 -267 252 -371 391 -70 94 -175 257 -195
301 -5 12 -13 29 -19 37 -10 16 -75 156 -92 200 -41 103 -99 287 -114 365 -17
88 -24 125 -28 155 -3 19 -7 44 -10 55 -28 140 -24 491 9 680 3 22 9 54 11 70
14 80 24 129 31 145 8 18 7 17 17 60 12 53 67 214 77 225 5 5 9 16 9 24 0 20
113 250 157 319 18 29 33 57 33 62 0 6 5 10 10 10 6 0 10 7 10 15 0 8 5 15 10
15 6 0 10 7 10 15 0 8 3 15 8 15 4 0 18 18 32 40 13 22 28 40 32 40 4 0 8 4 8
10 0 5 8 19 18 31 9 11 25 30 35 42 82 99 153 174 234 247 142 128 278 229
291 216 6 -7 8 -17 16 -76 3 -19 5 -35 6 -35 1 0 3 -16 5 -35 2 -19 6 -60 10
-90 13 -116 6 -493 -10 -520 -1 -3 -6 -30 -9 -61 -6 -53 -8 -66 -21 -121 -3
-13 -7 -34 -10 -48 -17 -88 -113 -382 -127 -388 -5 -2 -8 -10 -8 -19 0 -34
-179 -360 -228 -413 -12 -14 -25 -33 -28 -42 -3 -10 -10 -18 -15 -18 -5 0 -9
-6 -9 -14 0 -8 -3 -16 -8 -18 -4 -1 -25 -25 -47 -53 -22 -27 -52 -62 -67 -78
-16 -15 -28 -29 -28 -32 0 -3 -21 -25 -46 -49 -47 -46 -53 -65 -40 -131 3 -16
8 -46 11 -65 12 -63 14 -74 24 -120 5 -25 21 -80 34 -122 14 -42 22 -80 19
-83 -3 -3 1 -5 8 -5 7 0 10 -3 7 -7 -4 -3 -3 -11 1 -17 5 -6 17 -33 27 -61 10
-27 41 -95 69 -150 28 -55 49 -105 48 -111 -4 -18 29 -11 53 11 11 11 41 36
65 55 86 70 368 340 354 340 -2 0 7 10 19 23 37 39 101 118 111 135 5 9 18 26
28 37 28 30 208 301 208 313 0 6 3 12 8 14 4 2 15 19 25 38 9 19 30 58 46 87
15 29 26 55 23 58 -3 3 -1 5 5 5 9 0 14 9 27 50 3 8 48 103 63 132 7 15 13 29
12 30 -1 2 5 19 13 38 13 31 40 107 43 120 1 3 16 50 33 106 18 55 35 110 37
122 3 12 7 30 10 39 12 46 53 254 59 298 11 89 15 119 21 160 10 65 13 493 4
585 -16 154 -19 180 -43 305 -7 40 -18 105 -17 110 0 2 -6 23 -15 46 -8 23
-12 44 -9 47 2 2 0 13 -6 24 -6 11 -13 32 -15 46 -13 74 -108 335 -175 480
-22 46 -39 88 -39 92 0 5 -3 10 -7 12 -5 2 -20 28 -35 58 -51 104 -196 338
-231 375 -7 7 -19 23 -27 35 -17 27 -152 193 -186 230 -116 125 -295 294 -383
360 -18 14 -38 30 -44 36 -7 5 -55 41 -107 78 -179 128 -437 270 -630 345 -47
18 -98 41 -115 49 -16 9 -32 16 -35 15 -3 0 -9 1 -15 3 -104 33 -184 57 -200
60 -11 2 -29 6 -40 9 -197 46 -240 57 -241 58 -1 1 48 38 109 82 62 44 114 82
117 85 3 3 28 21 55 40 28 19 55 38 60 43 6 4 51 37 100 72 50 35 97 70 105
78 8 7 38 29 65 47 28 19 59 42 69 52 11 10 23 18 27 18 4 0 14 6 21 13 7 7
74 56 148 110 74 54 149 109 165 122 17 14 33 25 38 25 4 0 15 8 25 18 10 9
45 35 76 57 32 22 63 45 70 51 6 6 21 16 33 22 15 9 21 21 21 42 -1 17 2 33 5
37 4 3 2 12 -4 20 -6 7 -7 13 -2 13 10 0 10 46 0 56 -3 4 -3 14 2 23 4 9 6 22
5 29 -1 6 -2 27 -3 45 -1 24 -8 37 -28 49 -16 9 -37 25 -48 35 -11 10 -40 31
-65 48 -25 16 -47 32 -50 35 -3 3 -45 35 -95 70 -49 35 -91 68 -93 72 -2 4 -8
8 -13 8 -6 0 -19 9 -31 20 -22 20 -35 20 -1442 20 l-1421 -1 -40 -29z m1565
-2300 c0 -3 30 -5 68 -6 37 -1 87 -4 112 -7 90 -13 115 -17 140 -22 14 -3 39
-8 55 -11 17 -3 35 -7 40 -8 6 -2 24 -6 40 -10 17 -4 62 -17 100 -29 39 -11
74 -20 79 -19 4 2 13 -1 20 -6 6 -5 34 -17 61 -27 105 -37 367 -162 373 -177
2 -4 10 -8 18 -8 8 0 14 -4 14 -10 0 -5 5 -10 11 -10 21 0 254 -170 336 -246
64 -58 131 -124 174 -170 86 -93 269 -339 269 -361 0 -4 -38 -30 -83 -58 -45
-27 -86 -53 -92 -57 -5 -5 -51 -39 -101 -76 -185 -136 -349 -286 -494 -451
-30 -35 -60 -68 -65 -75 -6 -6 -26 -31 -45 -56 -19 -25 -38 -49 -43 -55 -4 -5
-25 -35 -47 -65 -22 -30 -43 -59 -48 -65 -4 -5 -26 -39 -47 -75 -22 -36 -43
-66 -47 -68 -5 -2 -8 -10 -8 -17 0 -8 -6 -20 -12 -27 -7 -7 -23 -33 -36 -58
-13 -25 -32 -61 -43 -80 -32 -59 -129 -270 -129 -281 0 -5 -6 -22 -14 -37 -8
-15 -16 -36 -18 -47 -1 -11 -5 -22 -8 -25 -3 -3 -21 -52 -39 -110 -29 -92 -37
-122 -45 -165 -1 -5 -5 -16 -9 -22 -5 -7 -5 -17 -2 -23 3 -6 2 -10 -3 -10 -5
0 -9 -6 -9 -12 0 -7 -3 -26 -7 -43 -3 -16 -8 -43 -11 -60 -3 -16 -8 -41 -10
-55 -16 -79 -21 -115 -41 -275 -2 -22 -6 -104 -8 -182 -2 -78 -7 -146 -11
-152 -3 -6 -3 -11 2 -11 4 0 9 -42 10 -93 2 -151 19 -304 50 -457 28 -142 33
-170 36 -194 2 -16 -9 -21 -63 -33 -36 -7 -85 -16 -110 -19 -25 -3 -52 -7 -60
-10 -32 -9 -191 -17 -315 -17 -165 0 -247 7 -400 33 -38 7 -79 14 -90 15 -11
2 -20 4 -20 5 0 2 -37 9 -62 12 -13 1 -23 6 -23 11 0 4 -6 7 -12 5 -51 -10
-470 162 -573 236 -16 11 -31 20 -33 18 -5 -5 -132 82 -132 91 0 6 -3 8 -6 4
-6 -5 -106 65 -140 98 -6 6 -31 27 -54 46 -198 161 -430 456 -562 715 -51 99
-128 277 -128 295 0 4 -5 20 -12 36 -6 15 -12 30 -13 33 -8 26 -28 99 -32 115
-6 30 -9 38 -16 60 -3 11 -8 31 -11 45 -2 14 -9 52 -15 85 -24 134 -32 224
-33 395 -1 118 6 271 16 315 2 11 7 47 11 80 3 32 11 67 16 77 6 10 7 22 4 27
-3 5 0 22 5 37 6 14 13 42 16 61 3 19 12 49 20 68 8 19 12 35 10 35 -14 0 87
254 148 375 71 141 93 177 226 370 83 121 287 328 430 438 30 23 60 47 67 53
6 6 35 26 65 45 29 18 55 36 58 39 8 9 120 73 205 117 94 48 327 143 353 143
10 0 22 4 28 9 5 4 32 14 59 21 89 21 122 29 160 35 17 3 37 8 45 10 36 11
172 27 254 30 48 2 90 5 92 7 5 6 194 4 194 -2z"/>
</g>
</svg>
